<?xml version="1.0" encoding="utf-8"?>
<!-- Generator: Adobe Illustrator 22.0.0, SVG Export Plug-In . SVG Version: 6.00 Build 0)  -->
<svg version="1.1" id="Layer_1" xmlns="http://www.w3.org/2000/svg" xmlns:xlink="http://www.w3.org/1999/xlink" x="0px" y="0px"
	 viewBox="0 0 16 16" style="enable-background:new 0 0 16 16;" xml:space="preserve">
<style type="text/css">
	.st0{fill:#FFFFFF;}
	.st1{fill:url(#SVGID_1_);}
	.st2{fill:#262626;}
	.st3{clip-path:url(#SVGID_3_);fill:url(#SVGID_4_);}
	.st4{clip-path:url(#SVGID_6_);fill:url(#SVGID_7_);}
	.st5{clip-path:url(#SVGID_9_);fill:url(#SVGID_10_);}
	.st6{clip-path:url(#SVGID_12_);fill:url(#SVGID_13_);}
	.st7{clip-path:url(#SVGID_15_);fill:url(#SVGID_16_);}
	.st8{clip-path:url(#SVGID_18_);fill:url(#SVGID_19_);}
	.st9{clip-path:url(#SVGID_21_);fill:url(#SVGID_22_);}
	.st10{clip-path:url(#SVGID_24_);fill:url(#SVGID_25_);}
	.st11{clip-path:url(#SVGID_27_);fill:url(#SVGID_28_);}
	.st12{clip-path:url(#SVGID_30_);fill:url(#SVGID_31_);}
	.st13{clip-path:url(#SVGID_33_);fill:url(#SVGID_34_);}
	.st14{clip-path:url(#SVGID_36_);fill:url(#SVGID_37_);}
	.st15{clip-path:url(#SVGID_39_);fill:#EDEFEF;}
	.st16{clip-path:url(#SVGID_41_);fill:#EDEFEF;}
	.st17{clip-path:url(#SVGID_43_);fill:#EDEFEF;}
	.st18{clip-path:url(#SVGID_45_);fill:#EDEFEF;}
	.st19{clip-path:url(#SVGID_47_);fill:url(#SVGID_48_);}
	.st20{clip-path:url(#SVGID_50_);fill:url(#SVGID_51_);}
	.st21{clip-path:url(#SVGID_53_);fill:url(#SVGID_54_);}
	.st22{clip-path:url(#SVGID_56_);fill:url(#SVGID_57_);}
	.st23{clip-path:url(#SVGID_59_);fill:url(#SVGID_60_);}
</style>
<linearGradient id="SVGID_1_" gradientUnits="userSpaceOnUse" x1="0" y1="8" x2="16" y2="8">
	<stop  offset="0" style="stop-color:#17A9D9"/>
	<stop  offset="1" style="stop-color:#00CAB4"/>
</linearGradient>
<path class="st1" d="M12.5,16H3.5c-2,0-3.5-1.6-3.5-3.5V3.5C0,1.6,1.6,0,3.5,0h8.9c2,0,3.5,1.6,3.5,3.5v8.9C16,14.4,14.4,16,12.5,16
	z"/>
<g>
	<g>
		<g>
			<defs>
				<polygon id="SVGID_38_" points="1.8,9.5 1.8,10.2 9.4,10.2 9.4,10.1 8.9,9.5 				"/>
			</defs>
			<use xlink:href="#SVGID_38_"  style="overflow:visible;fill:#EDEFEF;"/>
			<clipPath id="SVGID_3_">
				<use xlink:href="#SVGID_38_"  style="overflow:visible;"/>
			</clipPath>
			<rect x="1.8" y="9.5" style="clip-path:url(#SVGID_3_);fill:#EDEFEF;" width="7.7" height="0.7"/>
		</g>
		<g>
			<defs>
				<polygon id="SVGID_40_" points="1.8,7.7 1.8,8.3 7.9,8.3 7.3,7.7 				"/>
			</defs>
			<use xlink:href="#SVGID_40_"  style="overflow:visible;fill:#EDEFEF;"/>
			<clipPath id="SVGID_4_">
				<use xlink:href="#SVGID_40_"  style="overflow:visible;"/>
			</clipPath>
			<rect x="1.8" y="7.7" style="clip-path:url(#SVGID_4_);fill:#EDEFEF;" width="6.1" height="0.7"/>
		</g>
		<g>
			<defs>
				<polygon id="SVGID_42_" points="1.8,5.8 1.8,6.5 6.2,6.5 5.6,5.8 				"/>
			</defs>
			<use xlink:href="#SVGID_42_"  style="overflow:visible;fill:#EDEFEF;"/>
			<clipPath id="SVGID_6_">
				<use xlink:href="#SVGID_42_"  style="overflow:visible;"/>
			</clipPath>
			<rect x="1.8" y="5.8" style="clip-path:url(#SVGID_6_);fill:#EDEFEF;" width="4.4" height="0.7"/>
		</g>
	</g>
	<g>
		<defs>
			<polygon id="SVGID_44_" points="13.3,5.8 10.4,9.1 7.5,5.8 6.6,5.8 10,9.6 10.4,10.1 10.8,9.6 14.2,5.8 			"/>
		</defs>
		<use xlink:href="#SVGID_44_"  style="overflow:visible;fill:#EDEFEF;"/>
		<clipPath id="SVGID_7_">
			<use xlink:href="#SVGID_44_"  style="overflow:visible;"/>
		</clipPath>
		<rect x="6.6" y="5.8" style="clip-path:url(#SVGID_7_);fill:#EDEFEF;" width="7.7" height="4.2"/>
	</g>
</g>
</svg>
